<svg width="103" height="28" viewBox="0 0 103 28" fill="none" xmlns="http://www.w3.org/2000/svg">
<path d="M0.640637 11.54L0.640637 11.4845C0.640637 11.4752 0.640637 11.4659 0.640637 11.4567C0.640637 11.4317 0.640637 11.4072 0.640637 11.3826C0.709477 8.74133 2.87614 6.62178 5.53798 6.62178C6.62076 6.61982 7.67357 6.97734 8.53125 7.63826C9.38892 8.29919 10.0029 9.22612 10.277 10.2736C10.551 11.3212 10.4695 12.43 10.0454 13.4263C9.62122 14.4225 8.87835 15.2498 7.9333 15.7783L9.24651 17.0891C9.8519 17.6929 10.6721 18.032 11.5271 18.032C12.3821 18.032 13.2023 17.6929 13.8077 17.0891L14.3282 16.5722C15.0455 17.0217 15.8497 17.3147 16.6882 17.4319C17.5266 17.549 18.3803 17.4878 19.1934 17.2521L15.8435 20.5959C14.6978 21.7388 13.1456 22.3806 11.5273 22.3806C9.90901 22.3806 8.35678 21.7388 7.21108 20.5959L2.42848 15.8214C1.31361 14.7126 0.67265 13.2143 0.640637 11.6423C0.640637 11.6173 0.640637 11.5927 0.640637 11.5678C0.640637 11.5585 0.640637 11.5493 0.640637 11.54Z" fill="#00D7FE"/>
<path d="M3.82812 5.76386L7.17192 2.42653C8.31827 1.28363 9.871 0.641844 11.4898 0.641844C13.1085 0.641845 14.6612 1.28363 15.8076 2.42653L19.1602 5.7707L20.5922 7.20104C21.1601 7.7659 21.6105 8.4376 21.9175 9.17739C22.2245 9.91718 22.3819 10.7104 22.3809 11.5114C22.3809 14.2122 20.1864 16.4018 17.4799 16.4018C16.3966 16.4045 15.343 16.0473 14.4847 15.3864C13.6264 14.7254 13.012 13.798 12.7379 12.7499C12.4638 11.7019 12.5456 10.5924 12.9704 9.59588C13.3952 8.59933 14.139 7.77211 15.085 7.24412L13.7714 5.93334C13.1657 5.32931 12.3452 4.9901 11.4898 4.9901C10.6343 4.9901 9.81384 5.32931 9.20815 5.93334L8.69326 6.44702C7.97629 5.9972 7.17247 5.70373 6.33433 5.5858C5.49619 5.46787 4.64259 5.52814 3.82933 5.76265L3.82812 5.76386Z" fill="#00D7FE"/>
<path d="M30.9938 16.7747C33.7049 16.7747 35.8811 14.6125 35.8811 11.8111C35.8811 9.00968 33.7049 6.84751 30.9938 6.84751C28.2827 6.84751 26.1064 9.00968 26.1064 11.8111C26.1064 14.6125 28.2827 16.7747 30.9938 16.7747ZM30.9938 14.0297C29.795 14.0297 28.8729 13.146 28.8729 11.8111C28.8729 10.4762 29.795 9.59252 30.9938 9.59252C32.1926 9.59252 33.1147 10.4762 33.1147 11.8111C33.1147 13.146 32.1926 14.0297 30.9938 14.0297Z" fill="white"/>
<path d="M42.9689 7.11073L41.0508 13.0708L39.1328 7.11073H36.0713L39.4832 16.5115H42.6185L46.0304 7.11073H42.9689Z" fill="white"/>
<path d="M49.1566 12.9392H55.7037C55.7775 12.582 55.8144 12.2059 55.8144 11.8111C55.8144 8.97208 53.8226 6.84751 51.1299 6.84751C48.216 6.84751 46.2242 9.00968 46.2242 11.8111C46.2242 14.6125 48.1791 16.7747 51.3328 16.7747C53.0849 16.7747 54.4496 16.1166 55.3533 14.8381L53.1402 13.5408C52.7713 13.9545 52.1258 14.2553 51.3697 14.2553C50.3553 14.2553 49.507 13.9169 49.1566 12.9392ZM49.1012 10.8334C49.3594 9.87455 50.0603 9.34811 51.1115 9.34811C51.9414 9.34811 52.7713 9.74294 53.0664 10.8334H49.1012Z" fill="white"/>
<path d="M60.1499 8.78406V7.11073H57.3835V16.5115H60.1499V12.2623C60.1499 10.401 61.7728 9.93095 62.9163 10.119V6.92271C61.7544 6.92271 60.5187 7.52436 60.1499 8.78406Z" fill="white"/>
<path d="M69.8833 9.81814V7.11073H67.9837V4.47852L65.2173 5.32458V7.11073H63.7419V9.81814H65.2173V13.146C65.2173 15.7782 66.2686 16.8875 69.8833 16.5115V13.9545C68.6661 14.0297 67.9837 13.9545 67.9837 13.146V9.81814H69.8833Z" fill="white"/>
<path d="M77.5868 7.11073V12.2435C77.5868 13.5784 76.886 14.1801 75.8716 14.1801C74.9864 14.1801 74.2671 13.6348 74.2671 12.4692V7.11073H71.5007V12.8828C71.5007 15.421 73.0868 16.7747 74.9495 16.7747C76.1667 16.7747 77.0888 16.3235 77.5868 15.6278V16.5115H80.3532V7.11073H77.5868Z" fill="white"/>
<path d="M87.7858 6.84751C86.5685 6.84751 85.6464 7.29874 85.1485 7.9944V7.11073H82.382V16.5115H85.1485V11.3787C85.1485 10.0438 85.8493 9.44211 86.8636 9.44211C87.7489 9.44211 88.4681 9.98736 88.4681 11.153V16.5115H91.2346V10.7394C91.2346 8.20121 89.6485 6.84751 87.7858 6.84751Z" fill="white"/>
<path d="M95.6056 12.9392H102.153C102.227 12.582 102.263 12.2059 102.263 11.8111C102.263 8.97208 100.272 6.84751 97.579 6.84751C94.6651 6.84751 92.6732 9.00968 92.6732 11.8111C92.6732 14.6125 94.6282 16.7747 97.7819 16.7747C99.5339 16.7747 100.899 16.1166 101.802 14.8381L99.5893 13.5408C99.2204 13.9545 98.5749 14.2553 97.8188 14.2553C96.8044 14.2553 95.956 13.9169 95.6056 12.9392ZM95.5503 10.8334C95.8085 9.87455 96.5093 9.34811 97.5606 9.34811C98.3905 9.34811 99.2204 9.74294 99.5155 10.8334H95.5503Z" fill="white"/>
<path d="M28.5092 24.6527L29.4831 21.6961H30.5196L29.0936 25.55H27.911L26.4918 21.6961H27.5353L28.5092 24.6527ZM32.778 25.6127C32.4069 25.6127 32.073 25.5315 31.7762 25.3692C31.4794 25.2022 31.2452 24.968 31.0736 24.6666C30.9067 24.3651 30.8232 24.0173 30.8232 23.6231C30.8232 23.2289 30.909 22.8811 31.0806 22.5796C31.2568 22.2782 31.4956 22.0463 31.7971 21.884C32.0985 21.717 32.4348 21.6335 32.8058 21.6335C33.1768 21.6335 33.513 21.717 33.8145 21.884C34.1159 22.0463 34.3525 22.2782 34.5241 22.5796C34.7003 22.8811 34.7884 23.2289 34.7884 23.6231C34.7884 24.0173 34.698 24.3651 34.5171 24.6666C34.3409 24.968 34.0997 25.2022 33.7936 25.3692C33.4922 25.5315 33.1536 25.6127 32.778 25.6127ZM32.778 24.764C32.9542 24.764 33.1188 24.7222 33.2719 24.6387C33.4296 24.5506 33.5548 24.4208 33.6475 24.2492C33.7403 24.0776 33.7867 23.8689 33.7867 23.6231C33.7867 23.2567 33.6893 22.9761 33.4945 22.7814C33.3043 22.5819 33.0701 22.4822 32.7919 22.4822C32.5136 22.4822 32.2794 22.5819 32.0893 22.7814C31.9038 22.9761 31.811 23.2567 31.811 23.6231C31.811 23.9895 31.9014 24.2724 32.0823 24.4718C32.2678 24.6666 32.4997 24.764 32.778 24.764ZM35.9967 21.237C35.8251 21.237 35.6814 21.1837 35.5654 21.077C35.4541 20.9657 35.3985 20.8289 35.3985 20.6666C35.3985 20.5043 35.4541 20.3698 35.5654 20.2631C35.6814 20.1518 35.8251 20.0961 35.9967 20.0961C36.1683 20.0961 36.3098 20.1518 36.4211 20.2631C36.537 20.3698 36.595 20.5043 36.595 20.6666C36.595 20.8289 36.537 20.9657 36.4211 21.077C36.3098 21.1837 36.1683 21.237 35.9967 21.237ZM36.4767 21.6961V25.55H35.5028V21.6961H36.4767ZM37.1885 23.6231C37.1885 23.2243 37.2697 22.8764 37.432 22.5796C37.5943 22.2782 37.8192 22.0463 38.1068 21.884C38.3943 21.717 38.7236 21.6335 39.0946 21.6335C39.5723 21.6335 39.9665 21.7541 40.2772 21.9953C40.5926 22.2318 40.8036 22.5657 40.9102 22.997H39.8598C39.8042 22.83 39.7091 22.7002 39.5746 22.6074C39.4447 22.51 39.2824 22.4614 39.0876 22.4614C38.8094 22.4614 38.5891 22.5634 38.4268 22.7674C38.2644 22.9669 38.1833 23.2521 38.1833 23.6231C38.1833 23.9895 38.2644 24.2747 38.4268 24.4787C38.5891 24.6782 38.8094 24.7779 39.0876 24.7779C39.4818 24.7779 39.7392 24.6016 39.8598 24.2492H40.9102C40.8036 24.6666 40.5926 24.9982 40.2772 25.244C39.9618 25.4898 39.5676 25.6127 39.0946 25.6127C38.7236 25.6127 38.3943 25.5315 38.1068 25.3692C37.8192 25.2022 37.5943 24.9703 37.432 24.6735C37.2697 24.3721 37.1885 24.0219 37.1885 23.6231ZM45.2063 23.5396C45.2063 23.6787 45.1971 23.804 45.1785 23.9153H42.3611C42.3843 24.1935 42.4817 24.4115 42.6533 24.5692C42.8249 24.7269 43.0359 24.8057 43.2863 24.8057C43.6481 24.8057 43.9055 24.6503 44.0585 24.3396H45.1089C44.9976 24.7106 44.7843 25.0167 44.4689 25.2579C44.1536 25.4944 43.7663 25.6127 43.3072 25.6127C42.9362 25.6127 42.6023 25.5315 42.3055 25.3692C42.0133 25.2022 41.7837 24.968 41.6168 24.6666C41.4544 24.3651 41.3733 24.0173 41.3733 23.6231C41.3733 23.2243 41.4544 22.8741 41.6168 22.5727C41.7791 22.2712 42.0063 22.0393 42.2985 21.877C42.5907 21.7147 42.9269 21.6335 43.3072 21.6335C43.6736 21.6335 44.0005 21.7124 44.2881 21.87C44.5802 22.0277 44.8052 22.2527 44.9629 22.5448C45.1252 22.8324 45.2063 23.164 45.2063 23.5396ZM44.1976 23.2614C44.193 23.0109 44.1026 22.8115 43.9263 22.6631C43.7501 22.51 43.5344 22.4335 43.2794 22.4335C43.0382 22.4335 42.8342 22.5077 42.6672 22.6561C42.5049 22.7999 42.4052 23.0016 42.3681 23.2614H44.1976ZM47.3244 23.6231C47.3244 23.2243 47.4055 22.8764 47.5679 22.5796C47.7302 22.2782 47.9551 22.0463 48.2426 21.884C48.5302 21.717 48.8595 21.6335 49.2305 21.6335C49.7081 21.6335 50.1023 21.7541 50.4131 21.9953C50.7284 22.2318 50.9395 22.5657 51.0461 22.997H49.9957C49.94 22.83 49.845 22.7002 49.7105 22.6074C49.5806 22.51 49.4183 22.4614 49.2235 22.4614C48.9452 22.4614 48.725 22.5634 48.5626 22.7674C48.4003 22.9669 48.3192 23.2521 48.3192 23.6231C48.3192 23.9895 48.4003 24.2747 48.5626 24.4787C48.725 24.6782 48.9452 24.7779 49.2235 24.7779C49.6177 24.7779 49.8751 24.6016 49.9957 24.2492H51.0461C50.9395 24.6666 50.7284 24.9982 50.4131 25.244C50.0977 25.4898 49.7035 25.6127 49.2305 25.6127C48.8595 25.6127 48.5302 25.5315 48.2426 25.3692C47.9551 25.2022 47.7302 24.9703 47.5679 24.6735C47.4055 24.3721 47.3244 24.0219 47.3244 23.6231ZM53.93 21.6405C54.2222 21.6405 54.4819 21.7054 54.7092 21.8353C54.9364 21.9605 55.1126 22.1483 55.2379 22.3987C55.3677 22.6445 55.4326 22.9414 55.4326 23.2892V25.55H54.4587V23.4214C54.4587 23.1153 54.3822 22.8811 54.2292 22.7187C54.0761 22.5518 53.8674 22.4683 53.6031 22.4683C53.3341 22.4683 53.1208 22.5518 52.9631 22.7187C52.81 22.8811 52.7335 23.1153 52.7335 23.4214V25.55H51.7596V20.4022H52.7335V22.1761C52.8587 22.0092 53.0257 21.8793 53.2344 21.7866C53.4431 21.6892 53.675 21.6405 53.93 21.6405ZM56.1083 23.6092C56.1083 23.2196 56.1849 22.8741 56.3379 22.5727C56.4956 22.2712 56.7066 22.0393 56.971 21.877C57.2399 21.7147 57.5391 21.6335 57.8683 21.6335C58.1559 21.6335 58.4063 21.6915 58.6197 21.8074C58.8376 21.9234 59.0115 22.0695 59.1414 22.2457V21.6961H60.1223V25.55H59.1414V24.9866C59.0162 25.1674 58.8423 25.3182 58.6197 25.4387C58.4017 25.5547 58.1489 25.6127 57.8614 25.6127C57.5368 25.6127 57.2399 25.5292 56.971 25.3622C56.7066 25.1953 56.4956 24.9611 56.3379 24.6596C56.1849 24.3535 56.1083 24.0034 56.1083 23.6092ZM59.1414 23.6231C59.1414 23.3866 59.095 23.1848 59.0023 23.0179C58.9095 22.8463 58.7843 22.7164 58.6266 22.6283C58.4689 22.5356 58.2997 22.4892 58.1188 22.4892C57.9379 22.4892 57.771 22.5332 57.6179 22.6214C57.4649 22.7095 57.3397 22.8393 57.2423 23.0109C57.1495 23.1779 57.1031 23.3773 57.1031 23.6092C57.1031 23.8411 57.1495 24.0451 57.2423 24.2214C57.3397 24.3929 57.4649 24.5251 57.6179 24.6179C57.7756 24.7106 57.9425 24.757 58.1188 24.757C58.2997 24.757 58.4689 24.7129 58.6266 24.6248C58.7843 24.5321 58.9095 24.4022 59.0023 24.2353C59.095 24.0637 59.1414 23.8596 59.1414 23.6231ZM63.2091 21.6405C63.6682 21.6405 64.0392 21.7866 64.3221 22.0787C64.605 22.3663 64.7465 22.7698 64.7465 23.2892V25.55H63.7726V23.4214C63.7726 23.1153 63.6961 22.8811 63.543 22.7187C63.39 22.5518 63.1813 22.4683 62.9169 22.4683C62.6479 22.4683 62.4346 22.5518 62.2769 22.7187C62.1239 22.8811 62.0474 23.1153 62.0474 23.4214V25.55H61.0735V21.6961H62.0474V22.1761C62.1772 22.0092 62.3419 21.8793 62.5413 21.7866C62.7453 21.6892 62.9679 21.6405 63.2091 21.6405ZM67.1822 21.6335C67.4697 21.6335 67.7225 21.6915 67.9405 21.8074C68.1584 21.9187 68.33 22.0648 68.4552 22.2457V21.6961H69.4361V25.5779C69.4361 25.935 69.3642 26.2527 69.2205 26.5309C69.0767 26.8138 68.861 27.0364 68.5735 27.1987C68.286 27.3657 67.9381 27.4492 67.53 27.4492C66.9828 27.4492 66.5329 27.3216 66.1805 27.0666C65.8326 26.8115 65.6355 26.4637 65.5892 26.0231H66.5561C66.6071 26.1993 66.7161 26.3385 66.8831 26.4405C67.0547 26.5472 67.261 26.6005 67.5022 26.6005C67.7851 26.6005 68.0147 26.5147 68.1909 26.3431C68.3671 26.1761 68.4552 25.9211 68.4552 25.5779V24.9796C68.33 25.1605 68.1561 25.3112 67.9335 25.4318C67.7155 25.5524 67.4651 25.6127 67.1822 25.6127C66.8576 25.6127 66.5608 25.5292 66.2918 25.3622C66.0228 25.1953 65.8095 24.9611 65.6518 24.6596C65.4987 24.3535 65.4222 24.0034 65.4222 23.6092C65.4222 23.2196 65.4987 22.8741 65.6518 22.5727C65.8095 22.2712 66.0205 22.0393 66.2848 21.877C66.5538 21.7147 66.8529 21.6335 67.1822 21.6335ZM68.4552 23.6231C68.4552 23.3866 68.4089 23.1848 68.3161 23.0179C68.2234 22.8463 68.0981 22.7164 67.9405 22.6283C67.7828 22.5356 67.6135 22.4892 67.4326 22.4892C67.2518 22.4892 67.0848 22.5332 66.9318 22.6214C66.7787 22.7095 66.6535 22.8393 66.5561 23.0109C66.4634 23.1779 66.417 23.3773 66.417 23.6092C66.417 23.8411 66.4634 24.0451 66.5561 24.2214C66.6535 24.3929 66.7787 24.5251 66.9318 24.6179C67.0895 24.7106 67.2564 24.757 67.4326 24.757C67.6135 24.757 67.7828 24.7129 67.9405 24.6248C68.0981 24.5321 68.2234 24.4022 68.3161 24.2353C68.4089 24.0637 68.4552 23.8596 68.4552 23.6231ZM73.9699 23.5396C73.9699 23.6787 73.9606 23.804 73.9421 23.9153H71.1247C71.1479 24.1935 71.2453 24.4115 71.4169 24.5692C71.5885 24.7269 71.7995 24.8057 72.0499 24.8057C72.4117 24.8057 72.6691 24.6503 72.8221 24.3396H73.8725C73.7612 24.7106 73.5479 25.0167 73.2325 25.2579C72.9172 25.4944 72.5299 25.6127 72.0708 25.6127C71.6998 25.6127 71.3659 25.5315 71.0691 25.3692C70.7769 25.2022 70.5473 24.968 70.3804 24.6666C70.218 24.3651 70.1369 24.0173 70.1369 23.6231C70.1369 23.2243 70.218 22.8741 70.3804 22.5727C70.5427 22.2712 70.7699 22.0393 71.0621 21.877C71.3543 21.7147 71.6905 21.6335 72.0708 21.6335C72.4372 21.6335 72.7641 21.7124 73.0517 21.87C73.3438 22.0277 73.5688 22.2527 73.7264 22.5448C73.8888 22.8324 73.9699 23.164 73.9699 23.5396ZM72.9612 23.2614C72.9566 23.0109 72.8662 22.8115 72.6899 22.6631C72.5137 22.51 72.298 22.4335 72.043 22.4335C71.8018 22.4335 71.5977 22.5077 71.4308 22.6561C71.2685 22.7999 71.1688 23.0016 71.1317 23.2614H72.9612ZM75.6547 22.2944C75.7799 22.0903 75.9422 21.9303 76.1417 21.8144C76.3457 21.6985 76.5776 21.6405 76.8373 21.6405V22.6631H76.5799C76.2738 22.6631 76.042 22.735 75.8843 22.8787C75.7312 23.0225 75.6547 23.2729 75.6547 23.63V25.55H74.6808V21.6961H75.6547V22.2944Z" fill="white"/>
<path d="M80.4846 24.6534C80.515 24.6534 80.5412 24.6435 80.563 24.6235C80.5849 24.6035 80.5987 24.5774 80.6044 24.5451C80.6367 24.3056 80.6733 24.1037 80.7141 23.9392C80.755 23.7748 80.8082 23.6385 80.8738 23.5301C80.9394 23.4218 81.0254 23.3343 81.1318 23.2678C81.2382 23.2013 81.3727 23.1486 81.5352 23.1096C81.6977 23.0706 81.8978 23.0369 82.1353 23.0084C82.1696 23.0046 82.1976 22.9913 82.2195 22.9685C82.2413 22.9457 82.2522 22.919 82.2522 22.8886C82.2522 22.8563 82.2413 22.8288 82.2195 22.8059C82.1976 22.7831 82.1696 22.7698 82.1353 22.766C81.8978 22.7375 81.6977 22.7038 81.5352 22.6648C81.3727 22.6259 81.2382 22.5731 81.1318 22.5066C81.0254 22.4401 80.9394 22.3526 80.8738 22.2443C80.8082 22.136 80.755 21.9996 80.7141 21.8352C80.6733 21.6708 80.6367 21.4698 80.6044 21.2322C80.5987 21.198 80.5849 21.1709 80.563 21.1509C80.5412 21.131 80.515 21.121 80.4846 21.121C80.4523 21.121 80.4257 21.131 80.4048 21.1509C80.3839 21.1709 80.3706 21.198 80.3649 21.2322C80.3307 21.4698 80.2931 21.6708 80.2523 21.8352C80.2114 21.9996 80.1582 22.136 80.0926 22.2443C80.027 22.3526 79.941 22.4401 79.8346 22.5066C79.7281 22.5731 79.5937 22.6259 79.4312 22.6648C79.2687 22.7038 79.0686 22.7375 78.831 22.766C78.7968 22.7698 78.7693 22.7831 78.7483 22.8059C78.7274 22.8288 78.717 22.8563 78.717 22.8886C78.717 22.919 78.7274 22.9457 78.7483 22.9685C78.7693 22.9913 78.7968 23.0046 78.831 23.0084C79.0686 23.0407 79.2682 23.0773 79.4297 23.1181C79.5913 23.159 79.7253 23.2122 79.8317 23.2778C79.9382 23.3434 80.0242 23.4294 80.0898 23.5358C80.1553 23.6423 80.2085 23.7772 80.2494 23.9407C80.2903 24.1041 80.3288 24.3056 80.3649 24.5451C80.3706 24.5774 80.3839 24.6035 80.4048 24.6235C80.4257 24.6435 80.4523 24.6534 80.4846 24.6534ZM78.9707 22.1958C79.0201 22.1958 79.0477 22.1702 79.0534 22.1188C79.0724 21.9706 79.0924 21.8546 79.1133 21.771C79.1342 21.6874 79.167 21.6242 79.2116 21.5814C79.2563 21.5387 79.3228 21.5054 79.4112 21.4816C79.4996 21.4579 79.6208 21.4308 79.7747 21.4004C79.826 21.3909 79.8517 21.3633 79.8517 21.3177C79.8517 21.2664 79.826 21.2379 79.7747 21.2322C79.6208 21.2113 79.4991 21.1904 79.4098 21.1694C79.3205 21.1485 79.2539 21.1158 79.2102 21.0711C79.1665 21.0264 79.1342 20.9608 79.1133 20.8744C79.0924 20.7879 79.0724 20.6686 79.0534 20.5166C79.0477 20.4633 79.0201 20.4367 78.9707 20.4367C78.9194 20.4367 78.8909 20.4643 78.8852 20.5194C78.8681 20.6677 78.8491 20.7836 78.8282 20.8672C78.8073 20.9509 78.774 21.0136 78.7284 21.0554C78.6828 21.0972 78.6153 21.13 78.526 21.1538C78.4366 21.1775 78.3159 21.2037 78.1639 21.2322C78.1126 21.2417 78.0869 21.2702 78.0869 21.3177C78.0869 21.3652 78.1164 21.3928 78.1753 21.4004C78.3254 21.4251 78.4442 21.4484 78.5317 21.4702C78.6191 21.4921 78.6852 21.5249 78.7298 21.5686C78.7745 21.6123 78.8073 21.6769 78.8282 21.7625C78.8491 21.848 78.8681 21.9649 78.8852 22.1131C78.8909 22.1683 78.9194 22.1958 78.9707 22.1958ZM80.0399 20.6477C80.0703 20.6477 80.0883 20.6325 80.094 20.6021C80.1187 20.4785 80.1406 20.3902 80.1596 20.3369C80.1786 20.2837 80.2152 20.2462 80.2694 20.2243C80.3235 20.2025 80.4143 20.1792 80.5416 20.1545C80.5739 20.1469 80.5901 20.1288 80.5901 20.1003C80.5901 20.0718 80.5739 20.0537 80.5416 20.0461C80.4143 20.0214 80.3235 19.9981 80.2694 19.9763C80.2152 19.9544 80.1786 19.9164 80.1596 19.8622C80.1406 19.8081 80.1187 19.7202 80.094 19.5985C80.0883 19.5662 80.0703 19.55 80.0399 19.55C80.0113 19.55 79.9942 19.5662 79.9885 19.5985C79.9638 19.7202 79.942 19.8081 79.923 19.8622C79.904 19.9164 79.8674 19.9544 79.8132 19.9763C79.759 19.9981 79.6683 20.0214 79.5409 20.0461C79.5086 20.0537 79.4925 20.0718 79.4925 20.1003C79.4925 20.1288 79.5086 20.1469 79.5409 20.1545C79.6683 20.1792 79.759 20.2025 79.8132 20.2243C79.8674 20.2462 79.904 20.2837 79.923 20.3369C79.942 20.3902 79.9638 20.4785 79.9885 20.6021C79.9942 20.6325 80.0113 20.6477 80.0399 20.6477Z" fill="white"/>
</svg>
